<svg xmlns="http://www.w3.org/2000/svg" viewBox="0 0 100 100"><defs><style>.cls-1{fill:#e84a5f;}</style></defs><title>Artboard 1</title><g id="Layer_2" data-name="Layer 2"><path class="cls-1" d="M50,16.52A33.48,33.48,0,1,0,83.48,50,33.52,33.52,0,0,0,50,16.52ZM50,79A29,29,0,1,1,79,50,29.06,29.06,0,0,1,50,79Z"/><path class="cls-1" d="M50,0a50,50,0,1,0,50,50A50.06,50.06,0,0,0,50,0Zm0,95.55A45.55,45.55,0,1,1,95.55,50,45.6,45.6,0,0,1,50,95.55Z"/><path class="cls-1" d="M69.25,39.13l-.65-4.4L50,37.46,31.4,34.73l-.65,4.4,7.7,1.13v7.8H31.08v4.45h7.38v15h4.45v-15H57.29v15h4.45v-15h7.18V48.06H61.74V40.24ZM47.77,48.06H42.91V40.92l4.87.72Zm9.51,0H52.23V41.63l5.06-.74Z"/></g></svg>