<svg xmlns="http://www.w3.org/2000/svg" viewBox="0 0 60 60"><defs><style>.cls-1{fill:#222831;}.cls-2{fill:#ecebf4;}</style></defs><title>Artboard 1</title><g id="Layer_2" data-name="Layer 2"><path class="cls-1" d="M30,0A30,30,0,1,0,60,30,30,30,0,0,0,30,0ZM3.4,30A26.63,26.63,0,0,1,20.51,5.16V14a18.61,18.61,0,0,0-8.1,22.21H4.14A26.39,26.39,0,0,1,3.4,30ZM20.51,54.84A26.75,26.75,0,0,1,5.19,39.57H14A18.75,18.75,0,0,0,20.51,46ZM18.16,39.57a14.87,14.87,0,0,1-2.09-3.4A15,15,0,0,1,14.76,30a15.21,15.21,0,0,1,5.75-11.91,14.9,14.9,0,0,1,3.4-2,15.24,15.24,0,0,1,20,20.14,14.71,14.71,0,0,1-2.09,3.4A15.2,15.2,0,0,1,30,45.24,15.48,15.48,0,0,1,23.91,44a15.05,15.05,0,0,1-3.4-2.08A14.36,14.36,0,0,1,18.16,39.57ZM30,56.59a25.75,25.75,0,0,1-6.09-.71V47.61a18.11,18.11,0,0,0,6.09,1,18.68,18.68,0,0,0,16-9.07h8.8A26.61,26.61,0,0,1,30,56.59Zm17.6-20.42A18.63,18.63,0,0,0,30,11.35a18.11,18.11,0,0,0-6.09,1V4.12A25.75,25.75,0,0,1,30,3.4,26.58,26.58,0,0,1,55.86,36.17Z"/><path class="cls-2" d="M56.59,30a26.39,26.39,0,0,1-.73,6.18H47.61A18.63,18.63,0,0,0,30,11.35a18.11,18.11,0,0,0-6.09,1V4.12A25.75,25.75,0,0,1,30,3.4,26.62,26.62,0,0,1,56.59,30Z"/><path class="cls-1" d="M29.17,25.86,26.4,27.59,25,25.13l4.88-3.27h2.8V38.14H29.17Z"/></g></svg>