<svg xmlns="http://www.w3.org/2000/svg" viewBox="0 0 25 25"><defs><style>.cls-1{fill:#ecebf4;}</style></defs><title>Artboard 1</title><g id="Layer_2" data-name="Layer 2"><path class="cls-1" d="M24.81,4.87a10.09,10.09,0,0,1-2.9.8,5.09,5.09,0,0,0,2.22-2.8,10.07,10.07,0,0,1-3.22,1.23,5,5,0,0,0-8.73,3.46,5.24,5.24,0,0,0,.13,1.15A14.34,14.34,0,0,1,1.9,3.42a5.05,5.05,0,0,0,1.56,6.74,5,5,0,0,1-2.28-.63v.06a5.06,5.06,0,0,0,4,5,5.21,5.21,0,0,1-1.33.17,5.1,5.1,0,0,1-1-.09,5.07,5.07,0,0,0,4.72,3.51A10.15,10.15,0,0,1,1.39,20.3a10.84,10.84,0,0,1-1.2-.07A14.29,14.29,0,0,0,7.93,22.5,14.27,14.27,0,0,0,22.3,8.14l0-.65a10.18,10.18,0,0,0,2.53-2.62Zm0,0"/></g></svg>