<svg xmlns="http://www.w3.org/2000/svg" viewBox="0 0 40 40"><defs><style>.cls-1{fill:#e84a5f;}</style></defs><title>Artboard 1</title><g id="Layer_2" data-name="Layer 2"><path class="cls-1" d="M20,0A20,20,0,1,0,40,20,20,20,0,0,0,20,0ZM2.27,20A17.75,17.75,0,0,1,13.67,3.44V9.31a12.41,12.41,0,0,0-5.4,14.81H2.76A17.6,17.6,0,0,1,2.27,20ZM13.67,36.56A17.83,17.83,0,0,1,3.46,26.38H9.34a12.5,12.5,0,0,0,4.34,4.31ZM12.11,26.38a9.91,9.91,0,0,1-1.4-2.27A10,10,0,0,1,9.84,20,10.14,10.14,0,0,1,13.67,12a9.93,9.93,0,0,1,2.27-1.36A10.16,10.16,0,0,1,29.3,24.11a9.81,9.81,0,0,1-1.4,2.27A10.13,10.13,0,0,1,20,30.16a10.32,10.32,0,0,1-4.06-.84,10,10,0,0,1-2.27-1.39A9.57,9.57,0,0,1,12.11,26.38ZM20,37.73a17.17,17.17,0,0,1-4.06-.48V31.74a12.07,12.07,0,0,0,4.06.69,12.45,12.45,0,0,0,10.67-6h5.87A17.74,17.74,0,0,1,20,37.73ZM31.74,24.11A12.42,12.42,0,0,0,20,7.57a12.07,12.07,0,0,0-4.06.69V2.75A17.17,17.17,0,0,1,20,2.27,17.72,17.72,0,0,1,37.24,24.11Z"/></g></svg>