<svg xmlns="http://www.w3.org/2000/svg" viewBox="0 0 100 100"><defs><style>.cls-1,.cls-2{fill:#e84a5f;}.cls-2{stroke:#e84a5f;stroke-miterlimit:10;stroke-width:2px;}</style></defs><title>Artboard 1</title><g id="Layer_2" data-name="Layer 2"><path class="cls-1" d="M50,16.52A33.48,33.48,0,1,0,83.48,50,33.52,33.52,0,0,0,50,16.52ZM50,79A29,29,0,1,1,79,50,29.06,29.06,0,0,1,50,79Z"/><path class="cls-1" d="M50,0a50,50,0,1,0,50,50A50.06,50.06,0,0,0,50,0Zm0,95.55A45.55,45.55,0,1,1,95.55,50,45.6,45.6,0,0,1,50,95.55Z"/><path class="cls-2" d="M56.18,31H38.11V69h26V38.88Zm.54,3.13L61,38.35H56.72ZM39.94,67.21V32.79H54.89v7.39h7.39v27Z"/><rect class="cls-2" x="57.5" y="35.88" width="2.77" height="2.47"/><path class="cls-1" d="M49.42,53c1.94,0,3.3-.76,3.3-1.73s-.83-1.48-2-1.48A3.82,3.82,0,0,0,48.11,51l-2.19-2.26a7.45,7.45,0,0,1,5.49-2.42c3.14,0,5.31,1.94,5.31,4.64a4.82,4.82,0,0,1-3.9,4.48v1.25H49.42Zm-.74,7.25A2.4,2.4,0,0,1,51.13,58a2.38,2.38,0,0,1,0,4.76A2.41,2.41,0,0,1,48.68,60.3Z"/></g></svg>