<svg xmlns="http://www.w3.org/2000/svg" viewBox="0 0 25 25"><defs><style>.cls-1{fill:#ececf5;stroke:#ececf5;stroke-miterlimit:10;stroke-width:0.75px;}</style></defs><title>Artboard 1</title><g id="Layer_2" data-name="Layer 2"><path class="cls-1" d="M21.56,19.45l-4.77-4.77a7.53,7.53,0,1,0-2.11,2.11l4.77,4.77a1.49,1.49,0,1,0,2.11-2.11Zm-11-2.09a6.84,6.84,0,1,1,5.77-3.18L15,12.87A5,5,0,1,0,12.87,15l1.31,1.31A6.79,6.79,0,0,1,10.52,17.36Zm0-2.48a4.35,4.35,0,1,1,4.35-4.35A4.36,4.36,0,0,1,10.52,14.88Zm4.08-1.4,1.28,1.28a6.89,6.89,0,0,1-1.13,1.13l-1.28-1.28A5.08,5.08,0,0,0,14.61,13.48Zm6.46,7.6a.8.8,0,0,1-1.13,0l-4.7-4.7a7.59,7.59,0,0,0,1.13-1.13l4.7,4.7A.8.8,0,0,1,21.07,21.07Z"/></g></svg>