<svg xmlns="http://www.w3.org/2000/svg" viewBox="0 0 100 100"><defs><style>.cls-1,.cls-2{fill:#e84a5f;}.cls-2{stroke:#e84a5f;stroke-miterlimit:10;stroke-width:0.75px;}</style></defs><title>Artboard 1</title><g id="Layer_2" data-name="Layer 2"><path class="cls-1" d="M50,83.48A33.48,33.48,0,1,1,83.48,50,33.52,33.52,0,0,1,50,83.48ZM50,21A29,29,0,1,0,79,50,29.06,29.06,0,0,0,50,21Z"/><path class="cls-1" d="M50,100a50,50,0,1,1,50-50A50.06,50.06,0,0,1,50,100ZM50,4.45A45.55,45.55,0,1,0,95.55,50,45.6,45.6,0,0,0,50,4.45Z"/><path class="cls-2" d="M69.46,41.38l-.18.82a7.71,7.71,0,0,1-11.64,4.86.59.59,0,0,0-.83,0c-1.65,1.3-3.31,2.57-5,3.85a.68.68,0,0,0-.3.61q0,1.95,0,3.9c0,.26.06.38.33.45a7.71,7.71,0,1,1-4.08.08l.66-.19c0-.62,0-1.24,0-1.86,0-.81,0-1.62,0-2.43a.71.71,0,0,0-.22-.49Q45.6,49,42.94,46.94a.47.47,0,0,0-.42,0,7.86,7.86,0,0,1-4.61,1.28,7.73,7.73,0,1,1,8-8.86A7.65,7.65,0,0,1,45,44.2l-.16.3,1.49,1.16,3.36,2.6c.16.12.28.19.47,0L55,44.59a.26.26,0,0,0,.05-.06c-.25-.64-.54-1.24-.73-1.88a7.72,7.72,0,1,1,15.07-3.18,1.26,1.26,0,0,0,.07.21Zm-35.87-.84a4.67,4.67,0,1,0,4.65-4.69A4.68,4.68,0,0,0,33.58,40.54Zm32.82,0A4.67,4.67,0,1,0,61.6,45.2,4.68,4.68,0,0,0,66.41,40.56ZM50,58.73a4.66,4.66,0,1,0,4.65,4.74A4.64,4.64,0,0,0,50,58.73Z"/></g></svg>